<svg width="18.218750" height="18.218750" viewBox="0 0 18.2188 18.2188" fill="none" xmlns="http://www.w3.org/2000/svg" xmlns:xlink="http://www.w3.org/1999/xlink">
	<desc>
			Created with Pixso.
	</desc>
	<defs/>
	<path id="Vector" d="M13.0208 11.4583L12.198 11.4583L11.9062 11.1771C12.927 9.98959 13.5417 8.44791 13.5417 6.77084C13.5417 3.03125 10.5105 0 6.77075 0C3.03125 0 0 3.03125 0 6.77084C0 10.5104 3.03125 13.5417 6.77075 13.5417C8.448 13.5417 9.9895 12.9271 11.177 11.9062L11.4583 12.1979L11.4583 13.0208L16.6667 18.2188L18.2188 16.6667L13.0208 11.4583ZM6.77075 11.4583C4.177 11.4583 2.08325 9.36459 2.08325 6.77084C2.08325 4.17709 4.177 2.08334 6.77075 2.08334C9.3645 2.08334 11.4583 4.17709 11.4583 6.77084C11.4583 9.36459 9.3645 11.4583 6.77075 11.4583Z" fill="#FFFFFF" fill-opacity="1.000000" fill-rule="nonzero"/>
</svg>
